<svg xmlns="http://www.w3.org/2000/svg" width="10000" height="10000" fill="none">
    <g stroke="#ffffff" stroke-miterlimit="10" stroke-width="7" clip-path="url(#a)" opacity=".08">
        <path d="M0-68C147.044-68 147.044 94 294.089 94 441.133 94 441.133-68 588.178-68 735.222-68 735.222 94 882.267 94 1029.31 94 1029.31-68 1176.36-68c147.04 0 147.12 162 294.16 162 147.04 0 147.04-162 294.09-162 147.04 0 147.04 162 294.16 162 147.12 0 147.05-162 294.09-162 147.05 0 147.05 162 294.09 162C2794 94 2793.99-68 2941.04-68c147.04 0 147.12 162 294.16 162 147.05 0 147.05-162 294.09-162 147.05 0 147.05 162 294.09 162 147.05 0 147.05-162 294.09-162 147.05 0 147.05 162 294.09 162 147.04 0 147.04-162 294.09-162 147.04 0 147.04 162 294.09 162 147.04 0 147.04-162 294.09-162 147.04 0 147.12 162 294.16 162 147.04 0 147.04-162 294.09-162 147.04 0 147.04 162 294.16 162 147.12 0 147.05-162 294.09-162 147.05 0 147.05 162 294.09 162 147.05 0 147.12-162 294.16-162 147.05 0 147.05 162 294.09 162 147.05 0 147.12-162 294.17-162C7793.88-68 7793.88 94 7941 94c147.12 0 147.05-162 294.09-162 147.04 0 147.05 162 294.09 162 147.04 0 147.12-162 294.16-162 147.05 0 147.12 162 294.17 162 147.04 0 147.04-162 294.16-162 147.12 0 147.05 162 294.17 162S9852.96-68 10000-68M0 3484c147.044 0 147.044 162 294.089 162 147.044 0 147.044-162 294.089-162 147.044 0 147.044 162 294.089 162 147.043 0 147.043-162 294.093-162 147.04 0 147.12 162 294.16 162 147.04 0 147.04-162 294.09-162 147.04 0 147.04 162 294.16 162 147.12 0 147.05-162 294.09-162 147.05 0 147.05 162 294.09 162 147.05 0 147.04-162 294.09-162 147.04 0 147.12 162 294.16 162 147.05 0 147.05-162 294.09-162 147.05 0 147.05 162 294.09 162 147.05 0 147.05-162 294.09-162 147.05 0 147.05 162 294.09 162 147.04 0 147.04-162 294.09-162 147.04 0 147.04 162 294.09 162 147.04 0 147.04-162 294.09-162 147.04 0 147.12 162 294.16 162 147.04 0 147.04-162 294.09-162 147.04 0 147.04 162 294.16 162 147.12 0 147.05-162 294.09-162 147.05 0 147.05 162 294.09 162 147.05 0 147.12-162 294.16-162 147.05 0 147.05 162 294.09 162 147.05 0 147.12-162 294.17-162 147.04 0 147.04 162 294.16 162 147.12 0 147.05-162 294.09-162 147.04 0 147.05 162 294.09 162 147.04 0 147.12-162 294.16-162 147.05 0 147.12 162 294.17 162 147.04 0 147.04-162 294.16-162 147.12 0 147.05 162 294.17 162s147.12-162 294.16-162M0 1708c147.044 0 147.044 162 294.089 162 147.044 0 147.044-162 294.089-162 147.044 0 147.044 162 294.089 162 147.043 0 147.043-162 294.093-162 147.04 0 147.12 162 294.16 162 147.04 0 147.04-162 294.09-162 147.04 0 147.04 162 294.16 162 147.12 0 147.05-162 294.09-162 147.05 0 147.05 162 294.09 162 147.05 0 147.04-162 294.09-162 147.04 0 147.12 162 294.16 162 147.05 0 147.05-162 294.09-162 147.05 0 147.05 162 294.09 162 147.05 0 147.05-162 294.09-162 147.05 0 147.05 162 294.09 162 147.04 0 147.04-162 294.09-162 147.04 0 147.04 162 294.09 162 147.04 0 147.04-162 294.09-162 147.04 0 147.12 162 294.16 162 147.04 0 147.04-162 294.09-162 147.04 0 147.04 162 294.16 162 147.12 0 147.05-162 294.09-162 147.05 0 147.05 162 294.09 162 147.05 0 147.12-162 294.16-162 147.05 0 147.05 162 294.09 162 147.05 0 147.12-162 294.17-162 147.04 0 147.04 162 294.16 162 147.12 0 147.05-162 294.09-162 147.04 0 147.05 162 294.09 162 147.04 0 147.12-162 294.16-162 147.05 0 147.12 162 294.17 162 147.04 0 147.04-162 294.16-162 147.12 0 147.05 162 294.17 162s147.12-162 294.16-162M0 5260c147.044 0 147.044 162 294.089 162 147.044 0 147.044-162 294.089-162 147.044 0 147.044 162 294.089 162 147.043 0 147.043-162 294.093-162 147.04 0 147.12 162 294.16 162 147.04 0 147.04-162 294.09-162 147.04 0 147.04 162 294.16 162 147.12 0 147.05-162 294.09-162 147.05 0 147.05 162 294.09 162 147.05 0 147.04-162 294.09-162 147.04 0 147.12 162 294.16 162 147.05 0 147.05-162 294.09-162 147.05 0 147.05 162 294.09 162 147.05 0 147.05-162 294.09-162 147.05 0 147.05 162 294.09 162 147.04 0 147.04-162 294.09-162 147.04 0 147.04 162 294.09 162 147.04 0 147.04-162 294.09-162 147.04 0 147.12 162 294.16 162 147.04 0 147.04-162 294.09-162 147.04 0 147.04 162 294.16 162 147.12 0 147.05-162 294.09-162 147.05 0 147.05 162 294.09 162 147.05 0 147.12-162 294.16-162 147.05 0 147.05 162 294.09 162 147.05 0 147.12-162 294.17-162 147.04 0 147.04 162 294.16 162 147.12 0 147.05-162 294.09-162 147.04 0 147.05 162 294.09 162 147.04 0 147.12-162 294.16-162 147.05 0 147.12 162 294.17 162 147.04 0 147.04-162 294.16-162 147.12 0 147.05 162 294.17 162s147.12-162 294.16-162M0 8590c147.044 0 147.044 162 294.089 162 147.044 0 147.044-162 294.089-162 147.044 0 147.044 162 294.089 162 147.043 0 147.043-162 294.093-162 147.04 0 147.12 162 294.16 162 147.04 0 147.04-162 294.09-162 147.04 0 147.04 162 294.16 162 147.12 0 147.05-162 294.09-162 147.05 0 147.05 162 294.09 162 147.05 0 147.04-162 294.09-162 147.04 0 147.12 162 294.16 162 147.05 0 147.05-162 294.09-162 147.05 0 147.05 162 294.09 162 147.05 0 147.05-162 294.09-162 147.05 0 147.05 162 294.09 162 147.04 0 147.04-162 294.09-162 147.04 0 147.04 162 294.09 162 147.04 0 147.04-162 294.09-162 147.04 0 147.12 162 294.16 162 147.04 0 147.04-162 294.09-162 147.04 0 147.04 162 294.16 162 147.12 0 147.05-162 294.09-162 147.05 0 147.05 162 294.09 162 147.05 0 147.12-162 294.16-162 147.05 0 147.05 162 294.09 162 147.05 0 147.12-162 294.17-162 147.04 0 147.04 162 294.16 162 147.12 0 147.05-162 294.09-162 147.04 0 147.05 162 294.09 162 147.04 0 147.12-162 294.16-162 147.05 0 147.12 162 294.17 162 147.04 0 147.04-162 294.16-162 147.12 0 147.05 162 294.17 162s147.12-162 294.16-162M0 820c147.044 0 147.044 162 294.089 162 147.044 0 147.044-162 294.089-162 147.044 0 147.044 162 294.089 162 147.043 0 147.043-162 294.093-162 147.04 0 147.12 162 294.16 162 147.04 0 147.04-162 294.09-162 147.04 0 147.04 162 294.16 162 147.12 0 147.05-162 294.09-162 147.05 0 147.05 162 294.09 162 147.05 0 147.04-162 294.09-162 147.04 0 147.12 162 294.16 162 147.05 0 147.05-162 294.09-162 147.05 0 147.05 162 294.09 162 147.05 0 147.05-162 294.09-162 147.05 0 147.05 162 294.09 162 147.04 0 147.04-162 294.09-162 147.04 0 147.04 162 294.09 162 147.04 0 147.04-162 294.09-162 147.04 0 147.12 162 294.16 162 147.04 0 147.04-162 294.09-162 147.04 0 147.04 162 294.16 162 147.12 0 147.05-162 294.09-162 147.05 0 147.05 162 294.09 162 147.05 0 147.12-162 294.16-162 147.05 0 147.05 162 294.09 162 147.05 0 147.12-162 294.17-162 147.04 0 147.04 162 294.16 162 147.12 0 147.05-162 294.09-162 147.04 0 147.05 162 294.09 162 147.04 0 147.12-162 294.16-162 147.05 0 147.12 162 294.17 162 147.04 0 147.04-162 294.16-162 147.12 0 147.05 162 294.17 162s147.12-162 294.16-162M0 4372c147.044 0 147.044 162 294.089 162 147.044 0 147.044-162 294.089-162 147.044 0 147.044 162 294.089 162 147.043 0 147.043-162 294.093-162 147.04 0 147.12 162 294.16 162 147.04 0 147.04-162 294.09-162 147.04 0 147.04 162 294.16 162 147.12 0 147.05-162 294.09-162 147.05 0 147.05 162 294.09 162 147.05 0 147.04-162 294.09-162 147.04 0 147.12 162 294.16 162 147.05 0 147.05-162 294.09-162 147.05 0 147.05 162 294.09 162 147.05 0 147.05-162 294.09-162 147.05 0 147.05 162 294.09 162 147.04 0 147.04-162 294.09-162 147.04 0 147.04 162 294.09 162 147.04 0 147.04-162 294.09-162 147.04 0 147.12 162 294.16 162 147.04 0 147.04-162 294.09-162 147.04 0 147.04 162 294.16 162 147.12 0 147.05-162 294.09-162 147.05 0 147.05 162 294.09 162 147.05 0 147.12-162 294.16-162 147.05 0 147.05 162 294.09 162 147.05 0 147.12-162 294.17-162 147.04 0 147.04 162 294.16 162 147.12 0 147.05-162 294.09-162 147.04 0 147.05 162 294.09 162 147.04 0 147.12-162 294.16-162 147.05 0 147.12 162 294.17 162 147.04 0 147.04-162 294.16-162 147.12 0 147.05 162 294.17 162s147.12-162 294.16-162M0 7702c147.044 0 147.044 162 294.089 162 147.044 0 147.044-162 294.089-162 147.044 0 147.044 162 294.089 162 147.043 0 147.043-162 294.093-162 147.04 0 147.12 162 294.16 162 147.04 0 147.04-162 294.09-162 147.04 0 147.04 162 294.16 162 147.12 0 147.05-162 294.09-162 147.05 0 147.05 162 294.09 162 147.05 0 147.04-162 294.09-162 147.04 0 147.12 162 294.16 162 147.05 0 147.05-162 294.09-162 147.05 0 147.05 162 294.09 162 147.05 0 147.05-162 294.09-162 147.05 0 147.05 162 294.09 162 147.04 0 147.04-162 294.09-162 147.04 0 147.04 162 294.09 162 147.04 0 147.04-162 294.09-162 147.04 0 147.12 162 294.16 162 147.04 0 147.04-162 294.09-162 147.04 0 147.04 162 294.16 162 147.12 0 147.05-162 294.09-162 147.05 0 147.05 162 294.09 162 147.05 0 147.12-162 294.16-162 147.05 0 147.05 162 294.09 162 147.05 0 147.12-162 294.17-162 147.04 0 147.04 162 294.16 162 147.12 0 147.05-162 294.09-162 147.04 0 147.05 162 294.09 162 147.04 0 147.12-162 294.16-162 147.05 0 147.12 162 294.17 162 147.04 0 147.04-162 294.16-162 147.12 0 147.05 162 294.17 162s147.12-162 294.16-162M0 2596c147.044 0 147.044 162 294.089 162 147.044 0 147.044-162 294.089-162 147.044 0 147.044 162 294.089 162 147.043 0 147.043-162 294.093-162 147.04 0 147.12 162 294.16 162 147.04 0 147.04-162 294.09-162 147.04 0 147.04 162 294.16 162 147.12 0 147.05-162 294.09-162 147.05 0 147.05 162 294.09 162 147.05 0 147.04-162 294.09-162 147.04 0 147.12 162 294.16 162 147.05 0 147.05-162 294.09-162 147.05 0 147.05 162 294.09 162 147.05 0 147.05-162 294.09-162 147.05 0 147.05 162 294.09 162 147.04 0 147.04-162 294.09-162 147.04 0 147.04 162 294.09 162 147.04 0 147.04-162 294.09-162 147.04 0 147.12 162 294.16 162 147.04 0 147.04-162 294.09-162 147.04 0 147.04 162 294.16 162 147.12 0 147.05-162 294.09-162 147.05 0 147.05 162 294.09 162 147.05 0 147.12-162 294.16-162 147.05 0 147.05 162 294.09 162 147.05 0 147.12-162 294.17-162 147.04 0 147.04 162 294.16 162 147.12 0 147.05-162 294.09-162 147.04 0 147.05 162 294.09 162 147.04 0 147.12-162 294.16-162 147.05 0 147.12 162 294.17 162 147.04 0 147.04-162 294.16-162 147.12 0 147.05 162 294.17 162s147.12-162 294.16-162M0 6148c147.044 0 147.044 162 294.089 162 147.044 0 147.044-162 294.089-162 147.044 0 147.044 162 294.089 162 147.043 0 147.043-162 294.093-162 147.04 0 147.12 162 294.16 162 147.04 0 147.04-162 294.09-162 147.04 0 147.04 162 294.16 162 147.12 0 147.05-162 294.09-162 147.05 0 147.05 162 294.09 162 147.05 0 147.04-162 294.09-162 147.04 0 147.12 162 294.16 162 147.05 0 147.05-162 294.09-162 147.05 0 147.05 162 294.09 162 147.05 0 147.05-162 294.09-162 147.05 0 147.05 162 294.09 162 147.04 0 147.04-162 294.09-162 147.04 0 147.04 162 294.09 162 147.04 0 147.04-162 294.09-162 147.04 0 147.12 162 294.16 162 147.04 0 147.04-162 294.09-162 147.04 0 147.04 162 294.16 162 147.12 0 147.05-162 294.09-162 147.05 0 147.05 162 294.09 162 147.05 0 147.12-162 294.16-162 147.05 0 147.05 162 294.09 162 147.05 0 147.12-162 294.17-162 147.04 0 147.04 162 294.16 162 147.12 0 147.05-162 294.09-162 147.04 0 147.05 162 294.09 162 147.04 0 147.12-162 294.16-162 147.05 0 147.12 162 294.17 162 147.04 0 147.04-162 294.16-162 147.12 0 147.05 162 294.17 162s147.12-162 294.16-162M0 9478c147.044 0 147.044 162 294.089 162 147.044 0 147.044-162 294.089-162 147.044 0 147.044 162 294.089 162 147.043 0 147.043-162 294.093-162 147.04 0 147.12 162 294.16 162 147.04 0 147.04-162 294.09-162 147.04 0 147.04 162 294.16 162 147.12 0 147.05-162 294.09-162 147.05 0 147.05 162 294.09 162 147.05 0 147.04-162 294.09-162 147.04 0 147.12 162 294.16 162 147.05 0 147.05-162 294.09-162 147.05 0 147.05 162 294.09 162 147.05 0 147.05-162 294.09-162 147.05 0 147.05 162 294.09 162 147.04 0 147.04-162 294.09-162 147.04 0 147.04 162 294.09 162 147.04 0 147.04-162 294.09-162 147.04 0 147.12 162 294.16 162 147.04 0 147.04-162 294.09-162 147.04 0 147.04 162 294.16 162 147.12 0 147.05-162 294.09-162 147.05 0 147.05 162 294.09 162 147.05 0 147.12-162 294.16-162 147.05 0 147.05 162 294.09 162 147.05 0 147.12-162 294.17-162 147.04 0 147.04 162 294.16 162 147.12 0 147.05-162 294.09-162 147.04 0 147.05 162 294.09 162 147.04 0 147.12-162 294.16-162 147.05 0 147.12 162 294.17 162 147.04 0 147.04-162 294.16-162 147.12 0 147.05 162 294.17 162s147.12-162 294.16-162M0 376c147.044 0 147.044 162 294.089 162 147.044 0 147.044-162 294.089-162 147.044 0 147.044 162 294.089 162 147.043 0 147.043-162 294.093-162 147.04 0 147.12 162 294.16 162 147.04 0 147.04-162 294.09-162 147.04 0 147.04 162 294.16 162 147.12 0 147.05-162 294.09-162 147.05 0 147.05 162 294.09 162 147.05 0 147.04-162 294.09-162 147.04 0 147.12 162 294.16 162 147.05 0 147.05-162 294.09-162 147.05 0 147.05 162 294.09 162 147.05 0 147.05-162 294.09-162 147.05 0 147.05 162 294.09 162 147.04 0 147.04-162 294.09-162 147.04 0 147.04 162 294.09 162 147.04 0 147.04-162 294.09-162 147.04 0 147.12 162 294.16 162 147.04 0 147.04-162 294.09-162 147.04 0 147.04 162 294.16 162 147.12 0 147.05-162 294.09-162 147.05 0 147.05 162 294.09 162 147.05 0 147.12-162 294.16-162 147.05 0 147.05 162 294.09 162 147.05 0 147.12-162 294.17-162 147.04 0 147.04 162 294.16 162 147.12 0 147.05-162 294.09-162 147.04 0 147.05 162 294.09 162 147.04 0 147.12-162 294.16-162 147.05 0 147.12 162 294.17 162 147.04 0 147.04-162 294.16-162 147.12 0 147.05 162 294.17 162s147.12-162 294.16-162M0 3928c147.044 0 147.044 162 294.089 162 147.044 0 147.044-162 294.089-162 147.044 0 147.044 162 294.089 162 147.043 0 147.043-162 294.093-162 147.04 0 147.12 162 294.16 162 147.04 0 147.04-162 294.09-162 147.04 0 147.04 162 294.16 162 147.12 0 147.05-162 294.09-162 147.05 0 147.05 162 294.09 162 147.05 0 147.04-162 294.09-162 147.04 0 147.12 162 294.16 162 147.05 0 147.05-162 294.09-162 147.05 0 147.05 162 294.09 162 147.05 0 147.05-162 294.09-162 147.05 0 147.05 162 294.09 162 147.04 0 147.04-162 294.09-162 147.04 0 147.04 162 294.09 162 147.04 0 147.04-162 294.09-162 147.04 0 147.12 162 294.16 162 147.04 0 147.04-162 294.09-162 147.04 0 147.04 162 294.16 162 147.12 0 147.05-162 294.09-162 147.05 0 147.05 162 294.09 162 147.05 0 147.12-162 294.16-162 147.05 0 147.05 162 294.09 162 147.05 0 147.12-162 294.17-162 147.04 0 147.04 162 294.16 162 147.12 0 147.05-162 294.09-162 147.04 0 147.05 162 294.09 162 147.04 0 147.12-162 294.16-162 147.05 0 147.12 162 294.17 162 147.04 0 147.04-162 294.16-162 147.12 0 147.05 162 294.17 162s147.12-162 294.16-162M0 7258c147.044 0 147.044 162 294.089 162 147.044 0 147.044-162 294.089-162 147.044 0 147.044 162 294.089 162 147.043 0 147.043-162 294.093-162 147.04 0 147.12 162 294.16 162 147.04 0 147.04-162 294.09-162 147.04 0 147.04 162 294.16 162 147.12 0 147.05-162 294.09-162 147.05 0 147.05 162 294.09 162 147.05 0 147.04-162 294.09-162 147.04 0 147.12 162 294.16 162 147.05 0 147.05-162 294.09-162 147.05 0 147.05 162 294.09 162 147.05 0 147.05-162 294.09-162 147.05 0 147.05 162 294.09 162 147.04 0 147.04-162 294.09-162 147.04 0 147.04 162 294.09 162 147.04 0 147.04-162 294.09-162 147.04 0 147.12 162 294.16 162 147.04 0 147.04-162 294.09-162 147.04 0 147.04 162 294.16 162 147.12 0 147.05-162 294.09-162 147.05 0 147.05 162 294.09 162 147.05 0 147.12-162 294.16-162 147.05 0 147.05 162 294.09 162 147.05 0 147.12-162 294.17-162 147.04 0 147.04 162 294.16 162 147.12 0 147.05-162 294.09-162 147.04 0 147.05 162 294.09 162 147.04 0 147.12-162 294.16-162 147.05 0 147.12 162 294.17 162 147.04 0 147.04-162 294.16-162 147.12 0 147.05 162 294.17 162s147.12-162 294.16-162M0 2152c147.044 0 147.044 162 294.089 162 147.044 0 147.044-162 294.089-162 147.044 0 147.044 162 294.089 162 147.043 0 147.043-162 294.093-162 147.04 0 147.12 162 294.16 162 147.04 0 147.04-162 294.09-162 147.04 0 147.04 162 294.16 162 147.12 0 147.05-162 294.09-162 147.05 0 147.05 162 294.09 162 147.05 0 147.04-162 294.09-162 147.04 0 147.12 162 294.16 162 147.05 0 147.05-162 294.09-162 147.05 0 147.05 162 294.09 162 147.05 0 147.05-162 294.09-162 147.05 0 147.05 162 294.09 162 147.04 0 147.04-162 294.09-162 147.04 0 147.04 162 294.09 162 147.04 0 147.04-162 294.09-162 147.04 0 147.12 162 294.16 162 147.04 0 147.04-162 294.09-162 147.04 0 147.04 162 294.16 162 147.12 0 147.05-162 294.09-162 147.05 0 147.05 162 294.09 162 147.05 0 147.12-162 294.16-162 147.05 0 147.05 162 294.09 162 147.05 0 147.12-162 294.17-162 147.04 0 147.04 162 294.16 162 147.12 0 147.05-162 294.09-162 147.04 0 147.05 162 294.09 162 147.04 0 147.12-162 294.16-162 147.05 0 147.12 162 294.17 162 147.04 0 147.04-162 294.16-162 147.12 0 147.05 162 294.17 162s147.12-162 294.16-162M0 5704c147.044 0 147.044 162 294.089 162 147.044 0 147.044-162 294.089-162 147.044 0 147.044 162 294.089 162 147.043 0 147.043-162 294.093-162 147.04 0 147.12 162 294.16 162 147.04 0 147.04-162 294.09-162 147.04 0 147.04 162 294.16 162 147.12 0 147.05-162 294.09-162 147.05 0 147.05 162 294.09 162 147.05 0 147.04-162 294.09-162 147.04 0 147.12 162 294.16 162 147.05 0 147.05-162 294.09-162 147.05 0 147.05 162 294.09 162 147.05 0 147.05-162 294.09-162 147.05 0 147.05 162 294.09 162 147.04 0 147.04-162 294.09-162 147.04 0 147.04 162 294.09 162 147.04 0 147.04-162 294.09-162 147.04 0 147.12 162 294.16 162 147.04 0 147.04-162 294.09-162 147.04 0 147.04 162 294.16 162 147.12 0 147.05-162 294.09-162 147.05 0 147.05 162 294.09 162 147.05 0 147.12-162 294.16-162 147.05 0 147.05 162 294.09 162 147.05 0 147.12-162 294.17-162 147.04 0 147.04 162 294.16 162 147.12 0 147.05-162 294.09-162 147.04 0 147.05 162 294.09 162 147.04 0 147.12-162 294.16-162 147.05 0 147.12 162 294.17 162 147.04 0 147.04-162 294.16-162 147.12 0 147.05 162 294.17 162s147.12-162 294.16-162M0 9034c147.044 0 147.044 162 294.089 162 147.044 0 147.044-162 294.089-162 147.044 0 147.044 162 294.089 162 147.043 0 147.043-162 294.093-162 147.04 0 147.12 162 294.16 162 147.04 0 147.04-162 294.09-162 147.04 0 147.04 162 294.16 162 147.12 0 147.05-162 294.09-162 147.05 0 147.05 162 294.09 162 147.05 0 147.04-162 294.09-162 147.04 0 147.12 162 294.16 162 147.05 0 147.05-162 294.09-162 147.05 0 147.05 162 294.09 162 147.05 0 147.05-162 294.09-162 147.05 0 147.05 162 294.09 162 147.04 0 147.04-162 294.09-162 147.04 0 147.04 162 294.09 162 147.04 0 147.04-162 294.09-162 147.04 0 147.12 162 294.16 162 147.04 0 147.04-162 294.09-162 147.04 0 147.04 162 294.16 162 147.12 0 147.05-162 294.09-162 147.05 0 147.05 162 294.09 162 147.05 0 147.12-162 294.16-162 147.05 0 147.05 162 294.09 162 147.05 0 147.12-162 294.17-162 147.04 0 147.04 162 294.16 162 147.12 0 147.05-162 294.09-162 147.04 0 147.05 162 294.09 162 147.04 0 147.12-162 294.16-162 147.05 0 147.12 162 294.17 162 147.04 0 147.04-162 294.16-162 147.12 0 147.05 162 294.17 162s147.12-162 294.16-162M0 1264c147.044 0 147.044 162 294.089 162 147.044 0 147.044-162 294.089-162 147.044 0 147.044 162 294.089 162 147.043 0 147.043-162 294.093-162 147.04 0 147.12 162 294.16 162 147.04 0 147.04-162 294.09-162 147.04 0 147.04 162 294.16 162 147.12 0 147.05-162 294.09-162 147.05 0 147.05 162 294.09 162 147.05 0 147.04-162 294.09-162 147.04 0 147.12 162 294.16 162 147.05 0 147.05-162 294.09-162 147.05 0 147.05 162 294.09 162 147.05 0 147.05-162 294.09-162 147.05 0 147.05 162 294.09 162 147.04 0 147.04-162 294.09-162 147.04 0 147.04 162 294.09 162 147.04 0 147.04-162 294.09-162 147.04 0 147.12 162 294.16 162 147.04 0 147.04-162 294.09-162 147.04 0 147.04 162 294.16 162 147.12 0 147.05-162 294.09-162 147.05 0 147.05 162 294.09 162 147.05 0 147.12-162 294.16-162 147.05 0 147.05 162 294.09 162 147.05 0 147.12-162 294.17-162 147.04 0 147.04 162 294.16 162 147.12 0 147.05-162 294.09-162 147.04 0 147.05 162 294.09 162 147.04 0 147.12-162 294.16-162 147.05 0 147.12 162 294.17 162 147.04 0 147.04-162 294.16-162 147.12 0 147.05 162 294.17 162s147.12-162 294.16-162M0 4816c147.044 0 147.044 162 294.089 162 147.044 0 147.044-162 294.089-162 147.044 0 147.044 162 294.089 162 147.043 0 147.043-162 294.093-162 147.04 0 147.12 162 294.16 162 147.04 0 147.04-162 294.09-162 147.04 0 147.04 162 294.16 162 147.12 0 147.05-162 294.09-162 147.05 0 147.05 162 294.09 162 147.05 0 147.04-162 294.09-162 147.04 0 147.12 162 294.16 162 147.05 0 147.05-162 294.09-162 147.05 0 147.05 162 294.09 162 147.05 0 147.05-162 294.09-162 147.05 0 147.05 162 294.09 162 147.04 0 147.04-162 294.09-162 147.04 0 147.04 162 294.09 162 147.04 0 147.04-162 294.09-162 147.04 0 147.12 162 294.16 162 147.04 0 147.04-162 294.09-162 147.04 0 147.04 162 294.16 162 147.12 0 147.05-162 294.09-162 147.05 0 147.05 162 294.09 162 147.05 0 147.12-162 294.16-162 147.05 0 147.05 162 294.09 162 147.05 0 147.12-162 294.17-162 147.04 0 147.04 162 294.16 162 147.12 0 147.05-162 294.09-162 147.04 0 147.05 162 294.09 162 147.04 0 147.12-162 294.16-162 147.05 0 147.12 162 294.17 162 147.04 0 147.04-162 294.16-162 147.12 0 147.05 162 294.17 162s147.12-162 294.16-162M0 8146c147.044 0 147.044 162 294.089 162 147.044 0 147.044-162 294.089-162 147.044 0 147.044 162 294.089 162 147.043 0 147.043-162 294.093-162 147.04 0 147.12 162 294.16 162 147.04 0 147.04-162 294.09-162 147.04 0 147.04 162 294.16 162 147.12 0 147.05-162 294.09-162 147.05 0 147.05 162 294.09 162 147.05 0 147.04-162 294.09-162 147.04 0 147.12 162 294.16 162 147.05 0 147.05-162 294.09-162 147.05 0 147.05 162 294.09 162 147.05 0 147.05-162 294.09-162 147.05 0 147.05 162 294.09 162 147.04 0 147.04-162 294.09-162 147.04 0 147.04 162 294.09 162 147.04 0 147.04-162 294.09-162 147.04 0 147.12 162 294.16 162 147.04 0 147.04-162 294.09-162 147.04 0 147.04 162 294.16 162 147.12 0 147.05-162 294.09-162 147.05 0 147.05 162 294.09 162 147.05 0 147.12-162 294.16-162 147.05 0 147.05 162 294.09 162 147.05 0 147.12-162 294.17-162 147.04 0 147.04 162 294.16 162 147.12 0 147.05-162 294.09-162 147.04 0 147.05 162 294.09 162 147.04 0 147.12-162 294.16-162 147.05 0 147.12 162 294.17 162 147.04 0 147.04-162 294.16-162 147.12 0 147.05 162 294.17 162s147.12-162 294.16-162M0 3040c147.044 0 147.044 162 294.089 162 147.044 0 147.044-162 294.089-162 147.044 0 147.044 162 294.089 162 147.043 0 147.043-162 294.093-162 147.04 0 147.12 162 294.16 162 147.04 0 147.04-162 294.09-162 147.04 0 147.04 162 294.16 162 147.12 0 147.05-162 294.09-162 147.05 0 147.05 162 294.09 162 147.05 0 147.04-162 294.09-162 147.04 0 147.12 162 294.16 162 147.05 0 147.05-162 294.09-162 147.05 0 147.05 162 294.09 162 147.05 0 147.05-162 294.09-162 147.05 0 147.05 162 294.09 162 147.04 0 147.04-162 294.09-162 147.04 0 147.04 162 294.09 162 147.04 0 147.04-162 294.09-162 147.04 0 147.12 162 294.16 162 147.04 0 147.04-162 294.09-162 147.04 0 147.04 162 294.16 162 147.12 0 147.05-162 294.09-162 147.05 0 147.05 162 294.09 162 147.05 0 147.12-162 294.16-162 147.05 0 147.05 162 294.09 162 147.05 0 147.12-162 294.17-162 147.04 0 147.04 162 294.16 162 147.12 0 147.05-162 294.09-162 147.04 0 147.05 162 294.09 162 147.04 0 147.12-162 294.16-162 147.05 0 147.12 162 294.17 162 147.04 0 147.04-162 294.16-162 147.12 0 147.05 162 294.17 162s147.12-162 294.16-162M0 6592c147.044 0 147.044 162 294.089 162 147.044 0 147.044-162 294.089-162 147.044 0 147.044 162 294.089 162 147.043 0 147.043-162 294.093-162 147.04 0 147.12 162 294.16 162 147.04 0 147.04-162 294.09-162 147.04 0 147.04 162 294.16 162 147.12 0 147.05-162 294.09-162 147.05 0 147.05 162 294.09 162 147.05 0 147.04-162 294.09-162 147.04 0 147.12 162 294.16 162 147.05 0 147.05-162 294.09-162 147.05 0 147.05 162 294.09 162 147.05 0 147.05-162 294.09-162 147.05 0 147.05 162 294.09 162 147.04 0 147.04-162 294.09-162 147.04 0 147.04 162 294.09 162 147.04 0 147.04-162 294.09-162 147.04 0 147.12 162 294.16 162 147.04 0 147.04-162 294.09-162 147.04 0 147.04 162 294.16 162 147.12 0 147.05-162 294.09-162 147.05 0 147.05 162 294.09 162 147.05 0 147.12-162 294.16-162 147.05 0 147.05 162 294.09 162 147.05 0 147.12-162 294.17-162 147.04 0 147.04 162 294.16 162 147.12 0 147.05-162 294.09-162 147.04 0 147.05 162 294.09 162 147.04 0 147.12-162 294.16-162 147.05 0 147.12 162 294.17 162 147.04 0 147.04-162 294.16-162 147.12 0 147.05 162 294.17 162s147.12-162 294.16-162M0 9922c147.044 0 147.044 162 294.089 162 147.044 0 147.044-162 294.089-162 147.044 0 147.044 162 294.089 162 147.043 0 147.043-162 294.093-162 147.04 0 147.12 162 294.16 162 147.04 0 147.04-162 294.09-162 147.04 0 147.04 162 294.16 162 147.12 0 147.05-162 294.09-162 147.05 0 147.05 162 294.09 162 147.05 0 147.04-162 294.09-162 147.04 0 147.12 162 294.16 162 147.05 0 147.05-162 294.09-162 147.05 0 147.05 162 294.09 162 147.05 0 147.05-162 294.09-162 147.05 0 147.05 162 294.09 162 147.04 0 147.04-162 294.09-162 147.04 0 147.04 162 294.09 162 147.04 0 147.04-162 294.09-162 147.04 0 147.12 162 294.16 162 147.04 0 147.04-162 294.09-162 147.04 0 147.04 162 294.16 162 147.12 0 147.05-162 294.09-162 147.05 0 147.05 162 294.09 162 147.05 0 147.12-162 294.16-162 147.05 0 147.05 162 294.09 162 147.05 0 147.12-162 294.17-162 147.04 0 147.04 162 294.16 162 147.12 0 147.05-162 294.09-162 147.04 0 147.05 162 294.09 162 147.04 0 147.12-162 294.16-162 147.05 0 147.12 162 294.17 162 147.04 0 147.04-162 294.16-162 147.12 0 147.05 162 294.17 162s147.12-162 294.16-162M0 154c147.044 0 147.044 162 294.089 162 147.044 0 147.044-162 294.089-162 147.044 0 147.044 162 294.089 162 147.043 0 147.043-162 294.093-162 147.04 0 147.12 162 294.16 162 147.04 0 147.04-162 294.09-162 147.04 0 147.04 162 294.16 162 147.12 0 147.05-162 294.09-162 147.05 0 147.05 162 294.09 162 147.05 0 147.04-162 294.09-162 147.04 0 147.12 162 294.16 162 147.05 0 147.05-162 294.09-162 147.05 0 147.05 162 294.09 162 147.05 0 147.05-162 294.09-162 147.05 0 147.05 162 294.09 162 147.04 0 147.04-162 294.09-162 147.04 0 147.04 162 294.09 162 147.04 0 147.04-162 294.09-162 147.04 0 147.12 162 294.16 162 147.04 0 147.04-162 294.09-162 147.04 0 147.04 162 294.16 162 147.12 0 147.05-162 294.09-162 147.05 0 147.05 162 294.09 162 147.05 0 147.12-162 294.16-162 147.05 0 147.05 162 294.09 162 147.05 0 147.12-162 294.17-162 147.04 0 147.04 162 294.16 162 147.12 0 147.05-162 294.09-162 147.05 0 147.05 162 294.09 162 147.05 0 147.12-162 294.16-162 147.05 0 147.12 162 294.17 162 147.04 0 147.04-162 294.16-162 147.12 0 147.05 162 294.17 162s147.12-162 294.16-162M0 3706c147.044 0 147.044 162 294.089 162 147.044 0 147.044-162 294.089-162 147.044 0 147.044 162 294.089 162 147.043 0 147.043-162 294.093-162 147.04 0 147.12 162 294.16 162 147.04 0 147.04-162 294.09-162 147.04 0 147.04 162 294.16 162 147.12 0 147.05-162 294.09-162 147.05 0 147.05 162 294.09 162 147.05 0 147.04-162 294.09-162 147.04 0 147.12 162 294.16 162 147.05 0 147.05-162 294.09-162 147.05 0 147.05 162 294.09 162 147.05 0 147.05-162 294.09-162 147.05 0 147.05 162 294.09 162 147.04 0 147.04-162 294.09-162 147.04 0 147.04 162 294.09 162 147.04 0 147.04-162 294.09-162 147.04 0 147.12 162 294.16 162 147.04 0 147.04-162 294.09-162 147.04 0 147.04 162 294.16 162 147.12 0 147.05-162 294.09-162 147.05 0 147.05 162 294.09 162 147.05 0 147.12-162 294.16-162 147.05 0 147.05 162 294.09 162 147.05 0 147.12-162 294.17-162 147.04 0 147.04 162 294.16 162 147.12 0 147.05-162 294.09-162 147.04 0 147.05 162 294.09 162 147.04 0 147.12-162 294.16-162 147.05 0 147.12 162 294.17 162 147.04 0 147.04-162 294.16-162 147.12 0 147.05 162 294.17 162s147.12-162 294.16-162M0 7036c147.044 0 147.044 162 294.089 162 147.044 0 147.044-162 294.089-162 147.044 0 147.044 162 294.089 162 147.043 0 147.043-162 294.093-162 147.04 0 147.12 162 294.16 162 147.04 0 147.04-162 294.09-162 147.04 0 147.04 162 294.16 162 147.12 0 147.05-162 294.09-162 147.05 0 147.05 162 294.09 162 147.05 0 147.04-162 294.09-162 147.04 0 147.12 162 294.16 162 147.05 0 147.05-162 294.09-162 147.05 0 147.05 162 294.09 162 147.05 0 147.05-162 294.09-162 147.05 0 147.05 162 294.09 162 147.04 0 147.04-162 294.09-162 147.04 0 147.04 162 294.09 162 147.04 0 147.04-162 294.09-162 147.04 0 147.12 162 294.16 162 147.04 0 147.04-162 294.09-162 147.04 0 147.04 162 294.16 162 147.12 0 147.05-162 294.09-162 147.05 0 147.05 162 294.09 162 147.05 0 147.12-162 294.16-162 147.05 0 147.05 162 294.09 162 147.05 0 147.12-162 294.17-162 147.04 0 147.04 162 294.16 162 147.12 0 147.05-162 294.09-162 147.04 0 147.05 162 294.09 162 147.04 0 147.12-162 294.16-162 147.05 0 147.12 162 294.17 162 147.04 0 147.04-162 294.16-162 147.12 0 147.05 162 294.17 162s147.12-162 294.16-162M0 1930c147.044 0 147.044 162 294.089 162 147.044 0 147.044-162 294.089-162 147.044 0 147.044 162 294.089 162 147.043 0 147.043-162 294.093-162 147.04 0 147.12 162 294.16 162 147.04 0 147.04-162 294.09-162 147.04 0 147.04 162 294.16 162 147.12 0 147.05-162 294.09-162 147.05 0 147.05 162 294.09 162 147.05 0 147.04-162 294.09-162 147.04 0 147.12 162 294.16 162 147.05 0 147.05-162 294.09-162 147.05 0 147.05 162 294.09 162 147.05 0 147.05-162 294.09-162 147.05 0 147.05 162 294.09 162 147.04 0 147.04-162 294.09-162 147.04 0 147.04 162 294.09 162 147.04 0 147.04-162 294.09-162 147.04 0 147.12 162 294.16 162 147.04 0 147.04-162 294.09-162 147.04 0 147.04 162 294.16 162 147.12 0 147.05-162 294.09-162 147.05 0 147.05 162 294.09 162 147.05 0 147.12-162 294.16-162 147.05 0 147.05 162 294.09 162 147.05 0 147.12-162 294.17-162 147.04 0 147.04 162 294.16 162 147.12 0 147.05-162 294.09-162 147.04 0 147.05 162 294.09 162 147.04 0 147.12-162 294.16-162 147.05 0 147.12 162 294.17 162 147.04 0 147.04-162 294.16-162 147.12 0 147.05 162 294.17 162s147.12-162 294.16-162M0 5482c147.044 0 147.044 162 294.089 162 147.044 0 147.044-162 294.089-162 147.044 0 147.044 162 294.089 162 147.043 0 147.043-162 294.093-162 147.04 0 147.12 162 294.16 162 147.04 0 147.04-162 294.09-162 147.04 0 147.04 162 294.16 162 147.12 0 147.05-162 294.09-162 147.05 0 147.05 162 294.09 162 147.05 0 147.04-162 294.09-162 147.04 0 147.12 162 294.16 162 147.05 0 147.05-162 294.09-162 147.05 0 147.05 162 294.09 162 147.05 0 147.05-162 294.09-162 147.05 0 147.05 162 294.09 162 147.04 0 147.04-162 294.09-162 147.04 0 147.04 162 294.09 162 147.04 0 147.04-162 294.09-162 147.04 0 147.12 162 294.16 162 147.04 0 147.04-162 294.09-162 147.04 0 147.04 162 294.16 162 147.12 0 147.05-162 294.09-162 147.05 0 147.05 162 294.09 162 147.05 0 147.12-162 294.16-162 147.05 0 147.05 162 294.09 162 147.05 0 147.12-162 294.17-162 147.04 0 147.04 162 294.16 162 147.12 0 147.05-162 294.09-162 147.04 0 147.05 162 294.09 162 147.04 0 147.12-162 294.16-162 147.05 0 147.12 162 294.17 162 147.04 0 147.04-162 294.16-162 147.12 0 147.05 162 294.17 162s147.12-162 294.16-162M0 8812c147.044 0 147.044 162 294.089 162 147.044 0 147.044-162 294.089-162 147.044 0 147.044 162 294.089 162 147.043 0 147.043-162 294.093-162 147.04 0 147.12 162 294.16 162 147.04 0 147.04-162 294.09-162 147.04 0 147.04 162 294.16 162 147.12 0 147.05-162 294.09-162 147.05 0 147.05 162 294.09 162 147.05 0 147.04-162 294.09-162 147.04 0 147.12 162 294.16 162 147.05 0 147.05-162 294.09-162 147.05 0 147.05 162 294.09 162 147.05 0 147.05-162 294.09-162 147.05 0 147.05 162 294.09 162 147.04 0 147.04-162 294.09-162 147.04 0 147.04 162 294.09 162 147.04 0 147.04-162 294.09-162 147.04 0 147.12 162 294.16 162 147.04 0 147.04-162 294.09-162 147.04 0 147.04 162 294.16 162 147.12 0 147.05-162 294.09-162 147.05 0 147.05 162 294.09 162 147.05 0 147.12-162 294.16-162 147.05 0 147.05 162 294.09 162 147.05 0 147.12-162 294.17-162 147.04 0 147.04 162 294.16 162 147.12 0 147.05-162 294.09-162 147.04 0 147.05 162 294.09 162 147.04 0 147.12-162 294.16-162 147.05 0 147.12 162 294.17 162 147.04 0 147.04-162 294.16-162 147.12 0 147.05 162 294.17 162s147.12-162 294.16-162M0 1042c147.044 0 147.044 162 294.089 162 147.044 0 147.044-162 294.089-162 147.044 0 147.044 162 294.089 162 147.043 0 147.043-162 294.093-162 147.04 0 147.12 162 294.16 162 147.04 0 147.04-162 294.09-162 147.04 0 147.04 162 294.16 162 147.12 0 147.05-162 294.09-162 147.05 0 147.05 162 294.09 162 147.05 0 147.04-162 294.09-162 147.04 0 147.12 162 294.16 162 147.05 0 147.05-162 294.09-162 147.05 0 147.05 162 294.09 162 147.05 0 147.05-162 294.09-162 147.05 0 147.05 162 294.09 162 147.04 0 147.04-162 294.09-162 147.04 0 147.04 162 294.09 162 147.04 0 147.04-162 294.09-162 147.04 0 147.12 162 294.16 162 147.04 0 147.04-162 294.09-162 147.04 0 147.04 162 294.16 162 147.12 0 147.05-162 294.09-162 147.05 0 147.05 162 294.09 162 147.05 0 147.12-162 294.16-162 147.05 0 147.05 162 294.09 162 147.05 0 147.12-162 294.17-162 147.04 0 147.04 162 294.16 162 147.12 0 147.05-162 294.09-162 147.04 0 147.05 162 294.09 162 147.04 0 147.12-162 294.16-162 147.05 0 147.12 162 294.17 162 147.04 0 147.04-162 294.16-162 147.12 0 147.05 162 294.17 162s147.12-162 294.16-162M0 4594c147.044 0 147.044 162 294.089 162 147.044 0 147.044-162 294.089-162 147.044 0 147.044 162 294.089 162 147.043 0 147.043-162 294.093-162 147.04 0 147.12 162 294.16 162 147.04 0 147.04-162 294.09-162 147.04 0 147.04 162 294.16 162 147.12 0 147.05-162 294.09-162 147.05 0 147.05 162 294.09 162 147.05 0 147.04-162 294.09-162 147.04 0 147.12 162 294.16 162 147.05 0 147.05-162 294.09-162 147.05 0 147.05 162 294.09 162 147.05 0 147.05-162 294.09-162 147.05 0 147.05 162 294.09 162 147.04 0 147.04-162 294.09-162 147.04 0 147.04 162 294.09 162 147.04 0 147.04-162 294.09-162 147.04 0 147.12 162 294.16 162 147.04 0 147.04-162 294.09-162 147.04 0 147.04 162 294.16 162 147.12 0 147.05-162 294.09-162 147.05 0 147.05 162 294.09 162 147.05 0 147.12-162 294.16-162 147.05 0 147.05 162 294.09 162 147.05 0 147.12-162 294.17-162 147.04 0 147.04 162 294.16 162 147.12 0 147.05-162 294.09-162 147.04 0 147.05 162 294.09 162 147.04 0 147.12-162 294.16-162 147.05 0 147.12 162 294.17 162 147.04 0 147.04-162 294.16-162 147.12 0 147.05 162 294.17 162s147.12-162 294.16-162M0 7924c147.044 0 147.044 162 294.089 162 147.044 0 147.044-162 294.089-162 147.044 0 147.044 162 294.089 162 147.043 0 147.043-162 294.093-162 147.04 0 147.12 162 294.16 162 147.04 0 147.04-162 294.09-162 147.04 0 147.04 162 294.16 162 147.12 0 147.05-162 294.09-162 147.05 0 147.05 162 294.09 162 147.05 0 147.04-162 294.09-162 147.04 0 147.12 162 294.16 162 147.05 0 147.05-162 294.09-162 147.05 0 147.05 162 294.09 162 147.05 0 147.05-162 294.09-162 147.05 0 147.05 162 294.09 162 147.04 0 147.04-162 294.09-162 147.04 0 147.04 162 294.09 162 147.04 0 147.04-162 294.09-162 147.04 0 147.12 162 294.16 162 147.04 0 147.04-162 294.09-162 147.04 0 147.04 162 294.16 162 147.12 0 147.05-162 294.09-162 147.05 0 147.05 162 294.09 162 147.05 0 147.12-162 294.16-162 147.05 0 147.05 162 294.09 162 147.05 0 147.12-162 294.17-162 147.04 0 147.04 162 294.16 162 147.12 0 147.05-162 294.09-162 147.04 0 147.05 162 294.09 162 147.04 0 147.12-162 294.16-162 147.05 0 147.12 162 294.17 162 147.04 0 147.04-162 294.16-162 147.12 0 147.05 162 294.17 162s147.12-162 294.16-162M0 2818c147.044 0 147.044 162 294.089 162 147.044 0 147.044-162 294.089-162 147.044 0 147.044 162 294.089 162 147.043 0 147.043-162 294.093-162 147.04 0 147.12 162 294.16 162 147.04 0 147.04-162 294.09-162 147.04 0 147.04 162 294.16 162 147.12 0 147.05-162 294.09-162 147.05 0 147.05 162 294.09 162 147.05 0 147.04-162 294.09-162 147.04 0 147.12 162 294.16 162 147.05 0 147.05-162 294.09-162 147.05 0 147.05 162 294.09 162 147.05 0 147.05-162 294.09-162 147.05 0 147.05 162 294.09 162 147.04 0 147.04-162 294.09-162 147.04 0 147.04 162 294.09 162 147.04 0 147.04-162 294.09-162 147.04 0 147.12 162 294.16 162 147.04 0 147.04-162 294.09-162 147.04 0 147.04 162 294.16 162 147.12 0 147.05-162 294.09-162 147.05 0 147.05 162 294.09 162 147.05 0 147.12-162 294.16-162 147.05 0 147.05 162 294.09 162 147.05 0 147.12-162 294.17-162 147.04 0 147.04 162 294.16 162 147.12 0 147.05-162 294.09-162 147.04 0 147.05 162 294.09 162 147.04 0 147.12-162 294.16-162 147.05 0 147.12 162 294.17 162 147.04 0 147.04-162 294.16-162 147.12 0 147.05 162 294.17 162s147.12-162 294.16-162M0 6370c147.044 0 147.044 162 294.089 162 147.044 0 147.044-162 294.089-162 147.044 0 147.044 162 294.089 162 147.043 0 147.043-162 294.093-162 147.04 0 147.12 162 294.16 162 147.04 0 147.04-162 294.09-162 147.04 0 147.04 162 294.16 162 147.12 0 147.05-162 294.09-162 147.05 0 147.05 162 294.09 162 147.05 0 147.04-162 294.09-162 147.04 0 147.12 162 294.16 162 147.05 0 147.05-162 294.09-162 147.05 0 147.05 162 294.09 162 147.05 0 147.05-162 294.09-162 147.05 0 147.05 162 294.09 162 147.04 0 147.04-162 294.09-162 147.04 0 147.04 162 294.09 162 147.04 0 147.04-162 294.09-162 147.04 0 147.12 162 294.16 162 147.04 0 147.04-162 294.09-162 147.04 0 147.04 162 294.16 162 147.12 0 147.05-162 294.09-162 147.05 0 147.05 162 294.09 162 147.05 0 147.12-162 294.16-162 147.05 0 147.05 162 294.09 162 147.05 0 147.12-162 294.17-162 147.04 0 147.04 162 294.16 162 147.12 0 147.05-162 294.09-162 147.04 0 147.05 162 294.09 162 147.04 0 147.12-162 294.16-162 147.05 0 147.12 162 294.17 162 147.04 0 147.04-162 294.16-162 147.12 0 147.05 162 294.17 162s147.12-162 294.16-162M0 9700c147.044 0 147.044 162 294.089 162 147.044 0 147.044-162 294.089-162 147.044 0 147.044 162 294.089 162 147.043 0 147.043-162 294.093-162 147.04 0 147.12 162 294.16 162 147.04 0 147.04-162 294.09-162 147.04 0 147.04 162 294.16 162 147.12 0 147.05-162 294.09-162 147.05 0 147.05 162 294.09 162 147.05 0 147.04-162 294.09-162 147.04 0 147.12 162 294.16 162 147.05 0 147.05-162 294.09-162 147.05 0 147.05 162 294.09 162 147.05 0 147.05-162 294.09-162 147.05 0 147.05 162 294.09 162 147.04 0 147.04-162 294.09-162 147.04 0 147.04 162 294.09 162 147.04 0 147.04-162 294.09-162 147.04 0 147.12 162 294.16 162 147.04 0 147.04-162 294.09-162 147.04 0 147.04 162 294.16 162 147.12 0 147.05-162 294.09-162 147.05 0 147.05 162 294.09 162 147.05 0 147.12-162 294.16-162 147.05 0 147.05 162 294.09 162 147.05 0 147.12-162 294.17-162 147.04 0 147.04 162 294.16 162 147.12 0 147.05-162 294.09-162 147.04 0 147.05 162 294.09 162 147.04 0 147.12-162 294.16-162 147.05 0 147.12 162 294.17 162 147.04 0 147.04-162 294.16-162 147.12 0 147.05 162 294.17 162s147.12-162 294.16-162M0 598c147.044 0 147.044 162 294.089 162 147.044 0 147.044-162 294.089-162 147.044 0 147.044 162 294.089 162 147.043 0 147.043-162 294.093-162 147.04 0 147.12 162 294.16 162 147.04 0 147.04-162 294.09-162 147.04 0 147.04 162 294.16 162 147.12 0 147.05-162 294.09-162 147.05 0 147.05 162 294.09 162 147.05 0 147.04-162 294.09-162 147.04 0 147.12 162 294.16 162 147.05 0 147.05-162 294.09-162 147.05 0 147.05 162 294.09 162 147.05 0 147.05-162 294.09-162 147.05 0 147.05 162 294.09 162 147.04 0 147.04-162 294.09-162 147.04 0 147.04 162 294.09 162 147.04 0 147.04-162 294.09-162 147.04 0 147.12 162 294.16 162 147.04 0 147.04-162 294.09-162 147.04 0 147.04 162 294.16 162 147.12 0 147.05-162 294.09-162 147.05 0 147.05 162 294.09 162 147.05 0 147.12-162 294.16-162 147.05 0 147.05 162 294.09 162 147.05 0 147.12-162 294.17-162 147.04 0 147.04 162 294.16 162 147.12 0 147.05-162 294.09-162 147.04 0 147.05 162 294.09 162 147.04 0 147.12-162 294.16-162 147.05 0 147.12 162 294.17 162 147.04 0 147.04-162 294.16-162 147.12 0 147.05 162 294.17 162s147.12-162 294.16-162M0 4150c147.044 0 147.044 162 294.089 162 147.044 0 147.044-162 294.089-162 147.044 0 147.044 162 294.089 162 147.043 0 147.043-162 294.093-162 147.04 0 147.12 162 294.16 162 147.04 0 147.04-162 294.09-162 147.04 0 147.04 162 294.16 162 147.12 0 147.05-162 294.09-162 147.05 0 147.05 162 294.09 162 147.05 0 147.04-162 294.09-162 147.04 0 147.12 162 294.16 162 147.05 0 147.05-162 294.09-162 147.05 0 147.05 162 294.09 162 147.05 0 147.05-162 294.09-162 147.05 0 147.05 162 294.09 162 147.04 0 147.04-162 294.09-162 147.04 0 147.04 162 294.09 162 147.04 0 147.04-162 294.09-162 147.04 0 147.12 162 294.16 162 147.04 0 147.04-162 294.09-162 147.04 0 147.04 162 294.16 162 147.12 0 147.05-162 294.09-162 147.05 0 147.05 162 294.09 162 147.05 0 147.12-162 294.16-162 147.05 0 147.05 162 294.09 162 147.05 0 147.12-162 294.17-162 147.04 0 147.04 162 294.16 162 147.12 0 147.05-162 294.09-162 147.04 0 147.05 162 294.09 162 147.04 0 147.12-162 294.16-162 147.05 0 147.12 162 294.17 162 147.04 0 147.04-162 294.16-162 147.12 0 147.05 162 294.17 162s147.12-162 294.16-162M0 7480c147.044 0 147.044 162 294.089 162 147.044 0 147.044-162 294.089-162 147.044 0 147.044 162 294.089 162 147.043 0 147.043-162 294.093-162 147.04 0 147.12 162 294.16 162 147.04 0 147.04-162 294.09-162 147.04 0 147.04 162 294.16 162 147.12 0 147.05-162 294.09-162 147.05 0 147.05 162 294.09 162 147.05 0 147.04-162 294.09-162 147.04 0 147.12 162 294.16 162 147.05 0 147.05-162 294.09-162 147.05 0 147.05 162 294.09 162 147.05 0 147.05-162 294.09-162 147.05 0 147.05 162 294.09 162 147.04 0 147.04-162 294.09-162 147.04 0 147.04 162 294.09 162 147.04 0 147.04-162 294.09-162 147.04 0 147.12 162 294.16 162 147.04 0 147.04-162 294.09-162 147.04 0 147.04 162 294.16 162 147.12 0 147.05-162 294.09-162 147.05 0 147.05 162 294.09 162 147.05 0 147.12-162 294.16-162 147.05 0 147.05 162 294.09 162 147.05 0 147.12-162 294.17-162 147.04 0 147.04 162 294.16 162 147.12 0 147.05-162 294.09-162 147.04 0 147.05 162 294.09 162 147.04 0 147.12-162 294.16-162 147.05 0 147.12 162 294.17 162 147.04 0 147.04-162 294.16-162 147.12 0 147.05 162 294.17 162s147.12-162 294.16-162M0 2374c147.044 0 147.044 162 294.089 162 147.044 0 147.044-162 294.089-162 147.044 0 147.044 162 294.089 162 147.043 0 147.043-162 294.093-162 147.04 0 147.12 162 294.16 162 147.04 0 147.04-162 294.09-162 147.04 0 147.04 162 294.16 162 147.12 0 147.05-162 294.09-162 147.05 0 147.05 162 294.09 162 147.05 0 147.04-162 294.09-162 147.04 0 147.12 162 294.16 162 147.05 0 147.05-162 294.09-162 147.05 0 147.05 162 294.09 162 147.05 0 147.05-162 294.09-162 147.05 0 147.05 162 294.09 162 147.04 0 147.04-162 294.09-162 147.04 0 147.04 162 294.09 162 147.04 0 147.04-162 294.09-162 147.04 0 147.12 162 294.16 162 147.04 0 147.04-162 294.09-162 147.04 0 147.04 162 294.16 162 147.12 0 147.05-162 294.09-162 147.05 0 147.05 162 294.09 162 147.05 0 147.12-162 294.16-162 147.05 0 147.05 162 294.09 162 147.05 0 147.12-162 294.17-162 147.04 0 147.04 162 294.16 162 147.12 0 147.05-162 294.09-162 147.04 0 147.05 162 294.09 162 147.04 0 147.12-162 294.16-162 147.05 0 147.12 162 294.17 162 147.04 0 147.04-162 294.16-162 147.12 0 147.05 162 294.17 162s147.12-162 294.16-162M0 5926c147.044 0 147.044 162 294.089 162 147.044 0 147.044-162 294.089-162 147.044 0 147.044 162 294.089 162 147.043 0 147.043-162 294.093-162 147.04 0 147.12 162 294.16 162 147.04 0 147.04-162 294.09-162 147.04 0 147.04 162 294.16 162 147.12 0 147.05-162 294.09-162 147.05 0 147.05 162 294.09 162 147.05 0 147.04-162 294.09-162 147.04 0 147.12 162 294.16 162 147.05 0 147.05-162 294.09-162 147.05 0 147.05 162 294.09 162 147.05 0 147.05-162 294.09-162 147.05 0 147.05 162 294.09 162 147.04 0 147.04-162 294.09-162 147.04 0 147.04 162 294.09 162 147.04 0 147.04-162 294.09-162 147.04 0 147.12 162 294.16 162 147.04 0 147.04-162 294.09-162 147.04 0 147.04 162 294.16 162 147.12 0 147.05-162 294.09-162 147.05 0 147.05 162 294.09 162 147.05 0 147.12-162 294.16-162 147.05 0 147.05 162 294.09 162 147.05 0 147.12-162 294.17-162 147.04 0 147.04 162 294.16 162 147.12 0 147.05-162 294.09-162 147.04 0 147.05 162 294.09 162 147.04 0 147.12-162 294.16-162 147.05 0 147.12 162 294.17 162 147.04 0 147.04-162 294.16-162 147.12 0 147.05 162 294.17 162s147.12-162 294.16-162M0 9256c147.044 0 147.044 162 294.089 162 147.044 0 147.044-162 294.089-162 147.044 0 147.044 162 294.089 162 147.043 0 147.043-162 294.093-162 147.04 0 147.12 162 294.16 162 147.04 0 147.04-162 294.09-162 147.04 0 147.04 162 294.16 162 147.12 0 147.05-162 294.09-162 147.05 0 147.05 162 294.09 162 147.05 0 147.04-162 294.09-162 147.04 0 147.12 162 294.16 162 147.05 0 147.05-162 294.09-162 147.05 0 147.05 162 294.09 162 147.05 0 147.05-162 294.09-162 147.05 0 147.05 162 294.09 162 147.04 0 147.04-162 294.09-162 147.04 0 147.04 162 294.09 162 147.04 0 147.04-162 294.09-162 147.04 0 147.12 162 294.16 162 147.04 0 147.04-162 294.09-162 147.04 0 147.04 162 294.16 162 147.12 0 147.05-162 294.09-162 147.05 0 147.05 162 294.09 162 147.05 0 147.12-162 294.16-162 147.05 0 147.05 162 294.09 162 147.05 0 147.12-162 294.17-162 147.04 0 147.04 162 294.16 162 147.12 0 147.05-162 294.09-162 147.04 0 147.05 162 294.09 162 147.04 0 147.12-162 294.16-162 147.05 0 147.12 162 294.17 162 147.04 0 147.04-162 294.16-162 147.12 0 147.05 162 294.17 162s147.12-162 294.16-162M0 1486c147.044 0 147.044 162 294.089 162 147.044 0 147.044-162 294.089-162 147.044 0 147.044 162 294.089 162 147.043 0 147.043-162 294.093-162 147.04 0 147.12 162 294.16 162 147.04 0 147.04-162 294.09-162 147.04 0 147.04 162 294.16 162 147.12 0 147.05-162 294.09-162 147.05 0 147.05 162 294.09 162 147.05 0 147.04-162 294.09-162 147.04 0 147.12 162 294.16 162 147.05 0 147.05-162 294.09-162 147.05 0 147.05 162 294.09 162 147.05 0 147.05-162 294.09-162 147.05 0 147.05 162 294.09 162 147.04 0 147.04-162 294.09-162 147.04 0 147.04 162 294.09 162 147.04 0 147.04-162 294.09-162 147.04 0 147.12 162 294.16 162 147.04 0 147.04-162 294.09-162 147.04 0 147.04 162 294.16 162 147.12 0 147.05-162 294.09-162 147.05 0 147.05 162 294.09 162 147.05 0 147.12-162 294.16-162 147.05 0 147.05 162 294.09 162 147.05 0 147.12-162 294.17-162 147.04 0 147.04 162 294.16 162 147.12 0 147.05-162 294.09-162 147.04 0 147.05 162 294.09 162 147.04 0 147.12-162 294.16-162 147.05 0 147.12 162 294.17 162 147.04 0 147.04-162 294.16-162 147.12 0 147.05 162 294.17 162s147.12-162 294.16-162M0 5038c147.044 0 147.044 162 294.089 162 147.044 0 147.044-162 294.089-162 147.044 0 147.044 162 294.089 162 147.043 0 147.043-162 294.093-162 147.04 0 147.12 162 294.16 162 147.04 0 147.04-162 294.09-162 147.04 0 147.04 162 294.16 162 147.12 0 147.05-162 294.09-162 147.05 0 147.05 162 294.09 162 147.05 0 147.04-162 294.09-162 147.04 0 147.12 162 294.16 162 147.05 0 147.05-162 294.09-162 147.05 0 147.05 162 294.09 162 147.05 0 147.05-162 294.09-162 147.05 0 147.05 162 294.09 162 147.04 0 147.04-162 294.09-162 147.04 0 147.04 162 294.09 162 147.04 0 147.04-162 294.09-162 147.04 0 147.12 162 294.16 162 147.04 0 147.04-162 294.09-162 147.04 0 147.04 162 294.16 162 147.12 0 147.05-162 294.09-162 147.05 0 147.05 162 294.09 162 147.05 0 147.12-162 294.16-162 147.05 0 147.05 162 294.09 162 147.05 0 147.12-162 294.17-162 147.04 0 147.04 162 294.16 162 147.12 0 147.05-162 294.09-162 147.04 0 147.05 162 294.09 162 147.04 0 147.12-162 294.16-162 147.05 0 147.12 162 294.17 162 147.04 0 147.04-162 294.16-162 147.12 0 147.05 162 294.17 162s147.12-162 294.16-162M0 8368c147.044 0 147.044 162 294.089 162 147.044 0 147.044-162 294.089-162 147.044 0 147.044 162 294.089 162 147.043 0 147.043-162 294.093-162 147.04 0 147.12 162 294.16 162 147.04 0 147.04-162 294.09-162 147.04 0 147.04 162 294.16 162 147.12 0 147.05-162 294.09-162 147.05 0 147.05 162 294.09 162 147.05 0 147.04-162 294.09-162 147.04 0 147.12 162 294.16 162 147.05 0 147.05-162 294.09-162 147.05 0 147.05 162 294.09 162 147.05 0 147.05-162 294.09-162 147.05 0 147.05 162 294.09 162 147.04 0 147.04-162 294.09-162 147.04 0 147.04 162 294.09 162 147.04 0 147.04-162 294.09-162 147.04 0 147.12 162 294.16 162 147.04 0 147.04-162 294.09-162 147.04 0 147.04 162 294.16 162 147.12 0 147.05-162 294.09-162 147.05 0 147.05 162 294.09 162 147.05 0 147.12-162 294.16-162 147.05 0 147.05 162 294.09 162 147.05 0 147.12-162 294.17-162 147.04 0 147.04 162 294.16 162 147.12 0 147.05-162 294.09-162 147.04 0 147.05 162 294.09 162 147.04 0 147.12-162 294.16-162 147.05 0 147.12 162 294.17 162 147.04 0 147.04-162 294.16-162 147.12 0 147.05 162 294.17 162s147.12-162 294.16-162M0 3262c147.044 0 147.044 162 294.089 162 147.044 0 147.044-162 294.089-162 147.044 0 147.044 162 294.089 162 147.043 0 147.043-162 294.093-162 147.04 0 147.12 162 294.16 162 147.04 0 147.04-162 294.09-162 147.04 0 147.04 162 294.16 162 147.12 0 147.05-162 294.09-162 147.05 0 147.05 162 294.09 162 147.05 0 147.04-162 294.09-162 147.04 0 147.12 162 294.16 162 147.05 0 147.05-162 294.09-162 147.05 0 147.05 162 294.09 162 147.05 0 147.05-162 294.09-162 147.05 0 147.05 162 294.09 162 147.04 0 147.04-162 294.09-162 147.04 0 147.04 162 294.09 162 147.04 0 147.04-162 294.09-162 147.04 0 147.12 162 294.16 162 147.04 0 147.04-162 294.09-162 147.04 0 147.04 162 294.16 162 147.12 0 147.05-162 294.09-162 147.05 0 147.05 162 294.09 162 147.05 0 147.12-162 294.16-162 147.05 0 147.05 162 294.09 162 147.05 0 147.12-162 294.17-162 147.04 0 147.04 162 294.16 162 147.12 0 147.05-162 294.09-162 147.04 0 147.05 162 294.09 162 147.04 0 147.12-162 294.16-162 147.05 0 147.12 162 294.17 162 147.04 0 147.04-162 294.16-162 147.12 0 147.05 162 294.17 162s147.12-162 294.16-162M0 6814c147.044 0 147.044 162 294.089 162 147.044 0 147.044-162 294.089-162 147.044 0 147.044 162 294.089 162 147.043 0 147.043-162 294.093-162 147.04 0 147.12 162 294.16 162 147.04 0 147.04-162 294.09-162 147.04 0 147.04 162 294.16 162 147.12 0 147.05-162 294.09-162 147.05 0 147.05 162 294.09 162 147.05 0 147.04-162 294.09-162 147.04 0 147.12 162 294.16 162 147.05 0 147.05-162 294.09-162 147.05 0 147.05 162 294.09 162 147.05 0 147.05-162 294.09-162 147.05 0 147.05 162 294.09 162 147.04 0 147.04-162 294.09-162 147.04 0 147.04 162 294.09 162 147.04 0 147.04-162 294.09-162 147.04 0 147.12 162 294.16 162 147.04 0 147.04-162 294.09-162 147.04 0 147.04 162 294.16 162 147.12 0 147.05-162 294.09-162 147.05 0 147.05 162 294.09 162 147.05 0 147.12-162 294.16-162 147.05 0 147.05 162 294.09 162 147.05 0 147.12-162 294.17-162 147.04 0 147.04 162 294.16 162 147.12 0 147.05-162 294.09-162 147.04 0 147.05 162 294.09 162 147.04 0 147.12-162 294.16-162 147.05 0 147.12 162 294.17 162 147.04 0 147.04-162 294.16-162 147.12 0 147.05 162 294.17 162s147.12-162 294.16-162"/>
    </g>
    <defs>
        <clipPath id="a">
            <path fill="#fff" d="M0 0h10000v10000H0z"/>
        </clipPath>
    </defs>
</svg>